<?xml version="1.0" encoding="UTF-8" standalone="no"?>
<!-- Created with Inkscape (http://www.inkscape.org/) -->

<svg
   xmlns:osb="http://www.openswatchbook.org/uri/2009/osb"
   xmlns:dc="http://purl.org/dc/elements/1.1/"
   xmlns:cc="http://creativecommons.org/ns#"
   xmlns:rdf="http://www.w3.org/1999/02/22-rdf-syntax-ns#"
   xmlns:svg="http://www.w3.org/2000/svg"
   xmlns="http://www.w3.org/2000/svg"
   xmlns:sodipodi="http://sodipodi.sourceforge.net/DTD/sodipodi-0.dtd"
   xmlns:inkscape="http://www.inkscape.org/namespaces/inkscape"
   sodipodi:docname="adnet.svg"
   inkscape:version="0.92.3 (2405546, 2018-03-11)"
   id="svg8"
   version="1.1"
   viewBox="0 0 378.01778 101.43672"
   height="383.38287"
   width="1428.7286"
   inkscape:export-filename="/home/zeta/Pictures/youtube/zeta2560.png"
   inkscape:export-xdpi="96"
   inkscape:export-ydpi="96">
  <defs
     id="defs2">
    <inkscape:path-effect
       effect="bspline"
       id="path-effect1988"
       is_visible="true"
       weight="33.333333"
       steps="2"
       helper_size="0"
       apply_no_weight="true"
       apply_with_weight="true"
       only_selected="false" />
    <linearGradient
       id="linearGradient970"
       osb:paint="solid">
      <stop
         style="stop-color:#000000;stop-opacity:1;"
         offset="0"
         id="stop968" />
    </linearGradient>
    <inkscape:path-effect
       effect="powerstroke"
       id="path-effect895"
       is_visible="true"
       offset_points="3,0.13229166"
       sort_points="true"
       interpolator_type="CubicBezierJohan"
       interpolator_beta="0.2"
       start_linecap_type="zerowidth"
       linejoin_type="extrp_arc"
       miter_limit="4"
       end_linecap_type="zerowidth" />
  </defs>
  <sodipodi:namedview
     inkscape:window-maximized="1"
     inkscape:window-y="41"
     inkscape:window-x="69"
     inkscape:window-height="1524"
     inkscape:window-width="2491"
     showguides="false"
     showgrid="true"
     inkscape:current-layer="layer2"
     inkscape:document-units="mm"
     inkscape:cy="-77.360642"
     inkscape:cx="710.02811"
     inkscape:zoom="1.2418209"
     inkscape:pageshadow="2"
     inkscape:pageopacity="0.0"
     borderopacity="1.0"
     bordercolor="#666666"
     pagecolor="#ffffff"
     id="base"
     inkscape:snap-nodes="true"
     inkscape:snap-intersection-paths="true"
     inkscape:snap-grids="true"
     units="px"
     inkscape:snap-others="true"
     inkscape:snap-global="true"
     inkscape:snap-bbox="true"
     inkscape:bbox-nodes="true"
     inkscape:snap-to-guides="false"
     gridtolerance="20"
     inkscape:snap-page="true"
     fit-margin-top="0"
     fit-margin-left="0"
     fit-margin-right="0"
     fit-margin-bottom="0">
    <inkscape:grid
       type="xygrid"
       id="grid22"
       spacingx="1.3229167"
       spacingy="1.3229167"
       enabled="true"
       empspacing="5"
       visible="true"
       snapvisiblegridlinesonly="true"
       units="px"
       originx="-26.765516"
       originy="-137.18829" />
  </sodipodi:namedview>
  <metadata
     id="metadata5">
    <rdf:RDF>
      <cc:Work
         rdf:about="">
        <dc:format>image/svg+xml</dc:format>
        <dc:type
           rdf:resource="http://purl.org/dc/dcmitype/StillImage" />
        <dc:title></dc:title>
      </cc:Work>
    </rdf:RDF>
  </metadata>
  <g
     inkscape:label="Layer 1"
     inkscape:groupmode="layer"
     id="layer1"
     style="display:inline"
     transform="translate(-26.765516,-58.374974)" />
  <g
     inkscape:groupmode="layer"
     id="layer2"
     inkscape:label="Layer 2"
     style="display:inline"
     transform="translate(-26.765516,-58.374974)">
    <path
       style="fill:#ffcc00;fill-opacity:1;stroke:#000000;stroke-width:1;stroke-linecap:butt;stroke-linejoin:miter;stroke-miterlimit:4;stroke-dasharray:none;stroke-opacity:1"
       d="M 251.35417,58.874976 V 158.09373 H 317.5 V 131.63539 H 277.8125 V 118.40623 H 317.5 l 10e-6,-19.843752 h -39.6875 V 85.333311 h 39.6875 L 317.5,58.874976 h -66.14583"
       id="path1517"
       inkscape:connector-curvature="0"
       sodipodi:nodetypes="ccccccccccccc" />
    <path
       style="fill:#ffcc00;fill-opacity:1;stroke:#000000;stroke-width:1;stroke-linecap:butt;stroke-linejoin:miter;stroke-miterlimit:4;stroke-dasharray:none;stroke-opacity:1"
       d="m 322.52707,58.874976 52.91668,1e-6 V 158.09373 H 348.98542 V 85.333311 l -26.45835,-2e-6 z"
       id="path1519"
       inkscape:connector-curvature="0"
       sodipodi:nodetypes="ccccccc" />
    <path
       style="fill:#ff0000;fill-opacity:1;stroke:#000000;stroke-width:1;stroke-linecap:butt;stroke-linejoin:miter;stroke-miterlimit:4;stroke-dasharray:none;stroke-opacity:1"
       d="m 377.56042,58.874976 26.72289,1e-6 v 26.458334 l -26.72289,-2e-6 V 58.874976"
       id="path1521"
       inkscape:connector-curvature="0"
       sodipodi:nodetypes="ccccc" />
    <path
       style="fill:#ff800f;fill-opacity:0.94117647;stroke:#000000;stroke-width:1;stroke-linecap:butt;stroke-linejoin:miter;stroke-miterlimit:4;stroke-dasharray:none;stroke-opacity:1"
       d="m 176.21253,58.874974 h 26.45833 V 158.09373 H 176.21253 V 58.874974"
       id="path829"
       inkscape:connector-curvature="0" />
    <path
       style="fill:#ffcc00;fill-opacity:1;stroke:#000000;stroke-width:1;stroke-linecap:butt;stroke-linejoin:miter;stroke-miterlimit:4;stroke-dasharray:none;stroke-opacity:1"
       d="m 218.28125,58.874976 h 26.45834 v 99.218754 h -26.45834 l -13.22916,-39.6875 V 58.874976 l 13.22916,39.687499 V 58.874976"
       id="path839"
       inkscape:connector-curvature="0" />
    <path
       style="fill:none;stroke:#000000;stroke-width:0.26458332px;stroke-linecap:butt;stroke-linejoin:miter;stroke-opacity:1"
       d="m 122.23752,158.09373 v -33.07292 h 6.61459 v -19.84375 h -6.61459 V 58.874977 H 75.935421 L 42.862503,125.02081 h 52.916668 v 33.07292 h 26.458349"
       id="path884"
       inkscape:connector-curvature="0" />
    <path
       style="fill:none;stroke:#000000;stroke-width:0.26458332px;stroke-linecap:butt;stroke-linejoin:miter;stroke-opacity:1"
       d="M 95.779171,105.17706 V 78.718727 H 89.164588 L 75.935421,105.17706 Z"
       id="path886"
       inkscape:connector-curvature="0" />
    <path
       style="fill:#ffcc00;fill-opacity:1;fill-rule:nonzero;stroke:#000000;stroke-width:1;stroke-miterlimit:4;stroke-dasharray:none;stroke-dashoffset:0;stroke-opacity:1"
       d="M 96.07235,141.29432 V 124.87274 H 69.707423 c -14.500709,0 -26.364926,-0.0676 -26.364926,-0.15029 0,-0.0827 7.355523,-14.86209 16.345608,-32.843167 L 76.033711,59.186406 h 22.975797 22.975812 v 23.201136 23.201138 h 3.31445 3.31445 v 9.64203 9.64203 h -3.31445 -3.31445 v 16.42158 16.42158 H 109.02884 96.07235 Z M 96.00012,91.954245 96.07855,78.470467 h -3.545113 -3.545109 l -6.685616,13.375261 c -3.67709,7.356396 -6.60109,13.459792 -6.497778,13.563102 0.103309,0.10331 4.671843,0.15214 10.152295,0.10851 l 9.96446,-0.0793 z"
       id="path890"
       inkscape:connector-curvature="0" />
    <path
       style="fill:#ff0000;fill-opacity:1;fill-rule:nonzero;stroke:#000000;stroke-width:1;stroke-miterlimit:4;stroke-dasharray:none;stroke-dashoffset:0;stroke-opacity:1"
       d="m 35.018401,142.21757 7.443791,-14.88444 h 14.884434 14.884437 l -7.443794,14.88444 -7.44379,14.88443 H 42.459044 27.57461 Z"
       id="path892"
       inkscape:connector-curvature="0" />
    <path
       style="fill:#ff0000;fill-opacity:1;fill-rule:nonzero;stroke:#000000;stroke-width:1;stroke-miterlimit:4;stroke-dasharray:none;stroke-dashoffset:0;stroke-opacity:1"
       d="m 164.50361,93.695315 c -12.76575,-0.0319 -24.93679,8.467785 -29.58304,20.313315 -1.57051,3.75814 -2.46089,7.80781 -2.23289,11.89377 -0.15132,3.48504 0.16685,6.99227 1.33953,10.2963 2.17557,7.08165 7.03514,13.14039 13.06767,17.34715 5.60136,3.58115 12.27298,5.75824 18.96489,5.30957 2.76703,-0.007 5.54552,-0.28734 8.19891,-1.10441 0,-9.56215 0,-19.12429 0,-28.68643 -1.58018,3.81236 -5.63328,6.56465 -9.81449,6.0199 -5.24735,-0.46936 -9.35665,-5.96714 -8.15026,-11.13147 0.92256,-4.98936 6.39511,-8.54394 11.32052,-7.18443 3.01692,0.72584 5.49619,3.07986 6.64037,5.92998 9.3e-4,-9.25577 0.003,-18.51155 0.004,-27.767315 -3.08125,-1.125697 -6.50816,-1.201046 -9.75507,-1.23593 z"
       id="path2146"
       inkscape:connector-curvature="0" />
  </g>
</svg>
