<?xml version="1.0" encoding="UTF-8" standalone="no"?>
<!-- Created with Inkscape (http://www.inkscape.org/) -->

<svg
   xmlns:osb="http://www.openswatchbook.org/uri/2009/osb"
   xmlns:dc="http://purl.org/dc/elements/1.1/"
   xmlns:cc="http://creativecommons.org/ns#"
   xmlns:rdf="http://www.w3.org/1999/02/22-rdf-syntax-ns#"
   xmlns:svg="http://www.w3.org/2000/svg"
   xmlns="http://www.w3.org/2000/svg"
   xmlns:sodipodi="http://sodipodi.sourceforge.net/DTD/sodipodi-0.dtd"
   xmlns:inkscape="http://www.inkscape.org/namespaces/inkscape"
   sodipodi:docname="zeta.svg"
   inkscape:version="0.92.3 (2405546, 2018-03-11)"
   id="svg8"
   version="1.1"
   viewBox="0 0 331.94168 100.21876"
   height="378.77954"
   width="1254.5828"
   inkscape:export-filename="/home/zeta/Pictures/youtube/zeta2560.png"
   inkscape:export-xdpi="96"
   inkscape:export-ydpi="96">
  <defs
     id="defs2">
    <linearGradient
       id="linearGradient970"
       osb:paint="solid">
      <stop
         style="stop-color:#000000;stop-opacity:1;"
         offset="0"
         id="stop968" />
    </linearGradient>
    <inkscape:path-effect
       effect="powerstroke"
       id="path-effect895"
       is_visible="true"
       offset_points="3,0.13229166"
       sort_points="true"
       interpolator_type="CubicBezierJohan"
       interpolator_beta="0.2"
       start_linecap_type="zerowidth"
       linejoin_type="extrp_arc"
       miter_limit="4"
       end_linecap_type="zerowidth" />
  </defs>
  <sodipodi:namedview
     inkscape:window-maximized="1"
     inkscape:window-y="41"
     inkscape:window-x="69"
     inkscape:window-height="1524"
     inkscape:window-width="2491"
     showguides="false"
     showgrid="true"
     inkscape:current-layer="layer2"
     inkscape:document-units="mm"
     inkscape:cy="441.91499"
     inkscape:cx="730.35387"
     inkscape:zoom="1.2418209"
     inkscape:pageshadow="2"
     inkscape:pageopacity="0.0"
     borderopacity="1.0"
     bordercolor="#666666"
     pagecolor="#ffffff"
     id="base"
     inkscape:snap-nodes="true"
     inkscape:snap-intersection-paths="true"
     inkscape:snap-grids="true"
     units="px"
     fit-margin-top="0"
     fit-margin-left="0"
     fit-margin-right="0"
     fit-margin-bottom="0">
    <inkscape:grid
       type="xygrid"
       id="grid22"
       spacingx="1.3229167"
       spacingy="1.3229167"
       originx="-158.03476"
       originy="-12.729174" />
  </sodipodi:namedview>
  <metadata
     id="metadata5">
    <rdf:RDF>
      <cc:Work
         rdf:about="">
        <dc:format>image/svg+xml</dc:format>
        <dc:type
           rdf:resource="http://purl.org/dc/dcmitype/StillImage" />
        <dc:title></dc:title>
      </cc:Work>
    </rdf:RDF>
  </metadata>
  <g
     inkscape:label="Layer 1"
     inkscape:groupmode="layer"
     id="layer1"
     style="display:inline"
     transform="translate(-158.03477,-184.05206)" />
  <g
     inkscape:groupmode="layer"
     id="layer2"
     inkscape:label="Layer 2"
     style="display:inline"
     transform="translate(-158.03477,-184.05206)">
    <path
       style="fill:#ff0000;fill-opacity:1;stroke:#000000;stroke-width:1;stroke-linecap:butt;stroke-linejoin:miter;stroke-miterlimit:4;stroke-dasharray:none;stroke-opacity:1"
       d="m 398.93744,184.55206 h 26.45833 l -7.0895,26.45834 h -26.45833 z"
       id="path949"
       inkscape:connector-curvature="0" />
    <path
       style="fill:#ffcc00;fill-opacity:1;stroke:#000000;stroke-width:1;stroke-linecap:butt;stroke-linejoin:miter;stroke-miterlimit:4;stroke-dasharray:none;stroke-opacity:1"
       d="m 258.03238,184.55206 -7.08949,26.45834 -52.0941,46.30208 h 39.6875 l -7.08949,26.45833 h -72.76042 l 7.08949,-26.45833 52.0941,-46.30208 h -39.6875 l 7.08949,-26.45834 h 72.76042"
       id="path941"
       inkscape:connector-curvature="0" />
    <path
       style="fill:#ffcc00;fill-opacity:1;stroke:#000000;stroke-width:1;stroke-linecap:butt;stroke-linejoin:miter;stroke-miterlimit:4;stroke-dasharray:none;stroke-opacity:1"
       d="m 264.64696,184.55206 h 72.76041 l -26.58558,99.21875 h -72.76041 l 7.08949,-26.45833 h 46.30208 l 3.54474,-13.22917 h -39.6875 l 5.31712,-19.84375 h 39.6875 l 3.54474,-13.22916 h -46.30208 l 7.08949,-26.45834"
       id="path945"
       inkscape:connector-curvature="0" />
    <path
       style="fill:#ffcc00;fill-opacity:1;stroke:#000000;stroke-width:1;stroke-linecap:butt;stroke-linejoin:miter;stroke-miterlimit:4;stroke-dasharray:none;stroke-opacity:1"
       d="m 344.02195,184.55206 h 52.91667 l -26.58558,99.21875 H 343.89471 L 363.3908,211.0104 h -26.45834 l 7.08949,-26.45834"
       id="path947"
       inkscape:connector-curvature="0" />
    <path
       style="fill:#ff0000;fill-opacity:1;stroke:#000000;stroke-width:1;stroke-linecap:butt;stroke-linejoin:miter;stroke-miterlimit:4;stroke-dasharray:none;stroke-opacity:1"
       d="m 403.0486,252.90276 -15.43402,30.86805 h 30.86805 l 15.43403,-30.86805 z"
       id="path957"
       inkscape:connector-curvature="0" />
    <path
       style="fill:#ffcc00;fill-opacity:1;fill-rule:nonzero;stroke:#000000;stroke-width:1;stroke-miterlimit:4;stroke-dasharray:none;stroke-dashoffset:0;stroke-opacity:1"
       d="m 420.27757,217.54908 c -5.48619,10.97264 -10.97235,21.94528 -16.45854,32.91789 17.61302,0 35.22604,0 52.83909,0 0,11.00815 0,22.01627 0,33.02442 8.73548,0 17.47097,0 26.20648,0 0,-11.00815 0,-22.01627 0,-33.02442 2.203,0 4.40602,0 6.60902,0 -0.0369,-6.49835 -0.0738,-12.9967 -0.11067,-19.49505 -2.16615,-0.039 -4.33226,-0.0783 -6.49835,-0.11777 0,-15.40766 0,-30.8153 0,-46.22294 -15.37618,0 -30.75234,0 -46.12852,0 -5.48616,10.97261 -10.97235,21.94525 -16.45851,32.91787 z m 32.91747,-13.3163 c 1.02217,0.27424 3.14976,-0.55694 3.46308,0.42614 0,8.73549 0,17.47097 0,26.20648 -6.7468,0 -13.49359,0 -20.24036,0 4.43823,-8.87746 8.87632,-17.755 13.3142,-26.63262 1.15435,0 2.30873,0 3.46308,0 z"
       id="path965"
       inkscape:connector-curvature="0" />
  </g>
</svg>
