<?xml version="1.0" encoding="UTF-8" standalone="no"?>
<!-- Created with Inkscape (http://www.inkscape.org/) -->

<svg
   xmlns:dc="http://purl.org/dc/elements/1.1/"
   xmlns:cc="http://creativecommons.org/ns#"
   xmlns:rdf="http://www.w3.org/1999/02/22-rdf-syntax-ns#"
   xmlns:svg="http://www.w3.org/2000/svg"
   xmlns="http://www.w3.org/2000/svg"
   xmlns:xlink="http://www.w3.org/1999/xlink"
   xmlns:sodipodi="http://sodipodi.sourceforge.net/DTD/sodipodi-0.dtd"
   xmlns:inkscape="http://www.inkscape.org/namespaces/inkscape"
   width="98.540031mm"
   height="71.444008mm"
   viewBox="0 0 98.540031 71.444008"
   version="1.1"
   id="svg8"
   sodipodi:docname="ez_6.svg"
   inkscape:version="0.92.3 (2405546, 2018-03-11)"
   style="enable-background:new">
  <defs
     id="defs2">
    <linearGradient
       inkscape:collect="always"
       id="linearGradient1565">
      <stop
         style="stop-color:#ffeeaa;stop-opacity:1"
         offset="0"
         id="stop1561" />
      <stop
         style="stop-color:#ffcc00;stop-opacity:1"
         offset="1"
         id="stop1563" />
    </linearGradient>
    <linearGradient
       inkscape:collect="always"
       id="linearGradient927">
      <stop
         style="stop-color:#d41a34;stop-opacity:0"
         offset="0"
         id="stop923" />
      <stop
         style="stop-color:#ff0000;stop-opacity:1"
         offset="1"
         id="stop925" />
    </linearGradient>
    <radialGradient
       inkscape:collect="always"
       xlink:href="#linearGradient927"
       id="radialGradient929"
       cx="50.42123"
       cy="96.605232"
       fx="50.42123"
       fy="96.605232"
       r="22.550524"
       gradientTransform="matrix(0.99729746,2.4634865e-7,-2.0218051e-7,0.99729727,6.6004729,-0.42748386)"
       gradientUnits="userSpaceOnUse" />
    <radialGradient
       inkscape:collect="always"
       xlink:href="#linearGradient1565"
       id="radialGradient1567"
       cx="355"
       cy="432.39905"
       fx="355"
       fy="432.39905"
       r="131.19514"
       gradientTransform="matrix(0.34300057,0.19055598,-0.16657579,0.29983624,305.26201,235.22339)"
       gradientUnits="userSpaceOnUse" />
  </defs>
  <sodipodi:namedview
     id="base"
     pagecolor="#ffffff"
     bordercolor="#666666"
     borderopacity="1.0"
     inkscape:pageopacity="0.0"
     inkscape:pageshadow="2"
     inkscape:zoom="2.4836418"
     inkscape:cx="209.32845"
     inkscape:cy="136.84271"
     inkscape:document-units="mm"
     inkscape:current-layer="layer1"
     showgrid="true"
     inkscape:window-width="2491"
     inkscape:window-height="1524"
     inkscape:window-x="69"
     inkscape:window-y="41"
     inkscape:window-maximized="1"
     fit-margin-top="0"
     fit-margin-left="0"
     fit-margin-right="0"
     fit-margin-bottom="0">
    <inkscape:grid
       type="xygrid"
       id="grid815"
       originx="-47.250244"
       originy="-167.33791" />
  </sodipodi:namedview>
  <metadata
     id="metadata5">
    <rdf:RDF>
      <cc:Work
         rdf:about="">
        <dc:format>image/svg+xml</dc:format>
        <dc:type
           rdf:resource="http://purl.org/dc/dcmitype/StillImage" />
        <dc:title></dc:title>
      </cc:Work>
    </rdf:RDF>
  </metadata>
  <g
     inkscape:label="Layer 1"
     inkscape:groupmode="layer"
     id="layer1"
     style="display:inline"
     transform="translate(-47.250246,-58.218082)">
    <path
       style="fill:none;stroke:#000000;stroke-width:0.35491779;stroke-linecap:butt;stroke-linejoin:miter;stroke-miterlimit:4;stroke-dasharray:none;stroke-opacity:1"
       d="m 75.18382,58.395541 h 70.429 v 23.476321 l -23.47633,23.476318 h 23.47633 v 23.47636 h -70.429 V 105.34818 L 98.660155,81.871862 H 75.18382 c 1.8e-5,0.509272 -4e-6,-14.085799 0,-23.476321 z"
       id="path900"
       inkscape:connector-curvature="0"
       sodipodi:nodetypes="ccccccccccc" />
    <path
       style="fill:#ffcc00;fill-opacity:0;stroke:#000000;stroke-width:0.70983559;stroke-miterlimit:4;stroke-dasharray:none;stroke-dashoffset:0;stroke-opacity:1"
       d="M 75.393928,117.05135 V 105.45516 L 87.324312,93.524204 99.254692,81.593252 H 87.324312 75.393928 V 70.097039 58.600826 h 34.956502 34.95651 V 70.197019 81.793212 L 133.4434,93.657333 121.57985,105.52142 h 11.86355 11.86354 v 11.56304 11.56305 H 110.35043 75.393928 Z"
       id="path1588"
       inkscape:connector-curvature="0" />
    <path
       style="fill:url(#radialGradient1567);fill-opacity:1;fill-rule:nonzero;stroke:#ffffff;stroke-width:1.08045554;stroke-miterlimit:4;stroke-dasharray:none;stroke-dashoffset:0;stroke-opacity:1"
       d="M 286.28709,442.05937 V 399.4801 l 46.10166,-46.10033 c 25.35591,-25.35519 46.10165,-46.23653 46.10165,-46.40297 0,-0.16645 -20.74574,-0.30264 -46.10165,-0.30264 h -46.10166 v -41.87399 -41.874 H 416.942 547.59691 v 42.78059 42.78058 l -45.69902,45.6977 c -25.13446,25.13372 -45.69902,45.83388 -45.69902,46.00033 0,0.16645 20.56456,0.30264 45.69902,0.30264 h 45.69902 v 42.07531 42.07531 H 416.942 286.28709 Z"
       id="path1559"
       inkscape:connector-curvature="0"
       transform="scale(0.26458333)" />
  </g>
  <g
     inkscape:groupmode="layer"
     id="layer2"
     inkscape:label="Layer 2"
     style="display:inline"
     transform="translate(-47.250246,-58.218082)">
    <path
       style="fill:url(#radialGradient929);fill-opacity:1;fill-rule:nonzero;stroke:#000000;stroke-width:0.77004844;stroke-miterlimit:4;stroke-dasharray:none;stroke-dashoffset:0;stroke-opacity:1"
       d="m 68.0393,129.19202 c -10.348742,-1.18044 -18.408527,-8.73957 -20.148419,-18.89682 -0.390361,-2.27906 -0.312259,-6.35461 0.16152,-8.4005 2.11572,-9.141716 8.950462,-15.814167 18.053385,-17.624599 2.160782,-0.42977 6.142765,-0.457157 8.23669,-0.05646 8.242539,1.576493 14.959604,7.354979 17.56427,15.110069 0.903924,2.69131 1.076615,3.85397 1.081104,7.27837 0.0043,2.91489 -0.02197,3.22438 -0.403981,4.84089 -0.513958,2.1751 -1.044939,3.61408 -2.054278,5.56726 -3.264519,6.31715 -9.336498,10.74947 -16.390796,11.96467 -1.635861,0.28187 -4.606361,0.38766 -6.099385,0.21729 z m 11.368712,-7.53597 c 1.957123,-0.45008 3.969675,-2.15557 5.078738,-4.30393 0.706464,-1.36843 1.246352,-3.32507 1.397673,-5.06545 l 0.103899,-1.1949 h -7.805065 -7.805073 l 0.08985,1.41217 c 0.238781,3.75258 2.179753,7.19672 4.818098,8.54936 1.335458,0.68472 2.820903,0.90191 4.121876,0.60275 z m 6.50251,-20.52175 c -0.287236,-3.997653 -2.242594,-7.31132 -5.123581,-8.682705 -4.740948,-2.256739 -9.797537,2.031345 -10.315058,8.747335 l -0.09271,1.20269 h 7.811182 7.811192 z"
       id="path1594"
       inkscape:connector-curvature="0" />
  </g>
</svg>
