<?xml version="1.0" encoding="UTF-8" standalone="no"?>
<!-- Generator: Adobe Illustrator 17.1.0, SVG Export Plug-In . SVG Version: 6.00 Build 0)  -->

<svg
   xmlns:dc="http://purl.org/dc/elements/1.1/"
   xmlns:cc="http://creativecommons.org/ns#"
   xmlns:rdf="http://www.w3.org/1999/02/22-rdf-syntax-ns#"
   xmlns:svg="http://www.w3.org/2000/svg"
   xmlns="http://www.w3.org/2000/svg"
   xmlns:sodipodi="http://sodipodi.sourceforge.net/DTD/sodipodi-0.dtd"
   xmlns:inkscape="http://www.inkscape.org/namespaces/inkscape"
   version="1.1"
   id="Capa_1"
   x="0px"
   y="0px"
   viewBox="0 0 388.30723 275.38184"
   xml:space="preserve"
   sodipodi:docname="business-cards.svg"
   inkscape:version="0.92.3 (2405546, 2018-03-11)"
   width="388.30722"
   height="275.38184"><metadata
   id="metadata156"><rdf:RDF><cc:Work
       rdf:about=""><dc:format>image/svg+xml</dc:format><dc:type
         rdf:resource="http://purl.org/dc/dcmitype/StillImage" /><dc:title></dc:title></cc:Work></rdf:RDF></metadata><defs
   id="defs154" /><sodipodi:namedview
   pagecolor="#ffffff"
   bordercolor="#666666"
   borderopacity="1"
   objecttolerance="10"
   gridtolerance="10"
   guidetolerance="10"
   inkscape:pageopacity="0"
   inkscape:pageshadow="2"
   inkscape:window-width="2491"
   inkscape:window-height="1524"
   id="namedview152"
   showgrid="false"
   inkscape:zoom="1"
   inkscape:cx="-53.345053"
   inkscape:cy="137.69071"
   inkscape:window-x="69"
   inkscape:window-y="41"
   inkscape:window-maximized="1"
   inkscape:current-layer="g119"
   fit-margin-top="0"
   fit-margin-left="0"
   fit-margin-right="0"
   fit-margin-bottom="0" />
<g
   id="g119"
   transform="translate(-35.445543,-91.909364)">
	<path
   d="m 297.42545,203.67495 c 2.76121,0.0141 5.2675,-1.09113 7.08666,-2.8909 1.81916,-1.79976 2.95189,-4.29476 2.96669,-7.05527 0.0296,-5.52242 -4.42375,-10.02375 -9.94687,-10.05406 l -84.85584,-0.45477 c -5.52172,-0.0289 -10.02305,4.42446 -10.05406,9.94688 -0.0296,5.52242 4.42374,10.02375 9.94687,10.05406 z"
   id="path103"
   inkscape:connector-curvature="0" />
	<path
   d="m 255.18984,167.43231 c 2.76121,0.0141 5.2675,-1.09114 7.08666,-2.8909 1.81916,-1.79977 2.95189,-4.29477 2.96669,-7.05527 0.0296,-5.52243 -4.42303,-10.02446 -9.94687,-10.05407 l -42.42792,-0.22809 c -5.52102,-0.0282 -10.02305,4.42446 -10.05335,9.94617 -0.0296,5.52243 4.42303,10.02446 9.94687,10.05406 z"
   id="path105"
   inkscape:connector-curvature="0" />
	<path
   d="m 82.849042,238.70603 c -1.483052,5.32017 1.62699,10.83538 6.946457,12.31914 5.32017,1.48446 10.834671,-1.62629 12.319841,-6.94575 3.36265,-12.06378 14.46685,-20.44017 27.00155,-20.37229 12.53399,0.0672 23.54707,8.56281 26.78093,20.65982 1.42665,5.33648 6.90822,8.50404 12.24398,7.0781 1.74059,-0.46444 3.25014,-1.36146 4.44514,-2.54372 2.46891,-2.44258 3.59376,-6.10437 2.63225,-9.69956 -5.55616,-20.78295 -24.46968,-35.3788 -45.99511,-35.49557 -21.52544,-0.11536 -40.595025,14.27763 -46.375038,34.99983 z"
   id="path107"
   inkscape:connector-curvature="0" />
	<path
   d="m 307.27649,231.61007 c 0.0296,-5.52242 -4.42375,-10.02375 -9.94687,-10.05406 l -84.85584,-0.45477 c -5.52172,-0.0289 -10.02305,4.42446 -10.05335,9.94617 -0.0296,5.52243 4.42374,10.02376 9.94687,10.05407 l 84.85584,0.45476 c 2.76121,0.0141 5.2675,-1.09113 7.08666,-2.8909 1.81916,-1.79976 2.95118,-4.29406 2.96669,-7.05527 z"
   id="path109"
   inkscape:connector-curvature="0" />
	<path
   d="m 403.75239,174.53598 -0.92626,172.70057 -286.99496,-1.53809 c -5.52173,-0.0289 -10.02306,4.42445 -10.05407,9.94687 -0.0296,5.52242 4.42375,10.02376 9.94687,10.05406 l 296.99614,1.59169 c 2.76122,0.0141 5.26751,-1.09113 7.08667,-2.8909 1.81915,-1.79976 2.95189,-4.29476 2.96669,-7.05527 l 0.97914,-182.69962 c 0.0296,-5.52243 -4.42375,-10.02376 -9.94688,-10.05407 -5.52171,-0.0303 -10.02304,4.42304 -10.05334,9.94476 z"
   id="path111"
   inkscape:connector-curvature="0" />
	<path
   d="m 368.58704,138.99167 -0.92626,172.70057 -286.994969,-1.53809 c -5.521721,-0.0289 -10.023053,4.42445 -10.054063,9.94687 -0.0296,5.52243 4.423744,10.02376 9.946872,10.05406 l 296.99614,1.59169 c 2.76122,0.0141 5.2675,-1.09113 7.08666,-2.8909 1.81916,-1.79976 2.9519,-4.29476 2.96669,-7.05527 l 0.97914,-182.69962 c 0.0296,-5.52243 -4.42374,-10.02376 -9.94687,-10.05406 -5.52171,-0.0303 -10.02305,4.42304 -10.05334,9.94475 z"
   id="path113"
   inkscape:connector-curvature="0" />
	<path
   d="m 342.3887,296.20175 c 2.76122,0.0141 5.26751,-1.09113 7.08666,-2.89089 1.81916,-1.79977 2.9519,-4.29477 2.96669,-7.05527 l 0.97914,-182.69963 c 0.0296,-5.522425 -4.42374,-10.023757 -9.94687,-10.054064 L 46.478894,91.909504 c -5.521722,-0.02889 -10.023053,4.424455 -10.054063,9.946876 L 35.44569,284.556 c -0.0296,5.52243 4.423744,10.02376 9.946872,10.05407 z M 56.372174,111.96333 l 276.995916,1.48379 -0.87267,162.70081 -276.995203,-1.4845 z"
   id="path115"
   inkscape:connector-curvature="0" />
	<path
   d="m 158.37353,164.92078 c 0.0407,-7.73069 -2.92973,-15.01436 -8.367,-20.51022 -5.43726,-5.49586 -12.68938,-8.54492 -20.41936,-8.58635 -7.72998,-0.0414 -15.01436,2.92973 -20.51022,8.367 -5.49586,5.43727 -8.54421,12.68868 -8.58564,20.41866 -0.0414,7.72998 2.92903,15.01365 8.367,20.51022 5.43656,5.49515 12.68797,8.54491 20.41936,8.58635 7.97959,0.0421 15.23058,-3.16475 20.49896,-8.37696 5.26838,-5.21221 8.55273,-12.42983 8.5969,-20.4087 z m -20.00022,-0.10789 c -0.0278,4.92987 -4.05999,8.92044 -8.98916,8.89332 -2.38787,-0.0121 -4.62932,-0.95538 -6.30812,-2.65226 -1.6802,-1.69831 -2.598,-3.94833 -2.58449,-6.33619 0.0128,-2.38857 0.95466,-4.62862 2.65226,-6.30812 1.69759,-1.67949 3.94761,-2.59729 6.33689,-2.5852 2.38716,0.0128 4.62862,0.95467 6.30812,2.65226 1.67879,1.6983 2.59659,3.94832 2.5845,6.33619 z"
   id="path117"
   inkscape:connector-curvature="0" />
</g>
<g
   id="g121"
   transform="translate(-35.445543,-91.909364)">
</g>
<g
   id="g123"
   transform="translate(-35.445543,-91.909364)">
</g>
<g
   id="g125"
   transform="translate(-35.445543,-91.909364)">
</g>
<g
   id="g127"
   transform="translate(-35.445543,-91.909364)">
</g>
<g
   id="g129"
   transform="translate(-35.445543,-91.909364)">
</g>
<g
   id="g131"
   transform="translate(-35.445543,-91.909364)">
</g>
<g
   id="g133"
   transform="translate(-35.445543,-91.909364)">
</g>
<g
   id="g135"
   transform="translate(-35.445543,-91.909364)">
</g>
<g
   id="g137"
   transform="translate(-35.445543,-91.909364)">
</g>
<g
   id="g139"
   transform="translate(-35.445543,-91.909364)">
</g>
<g
   id="g141"
   transform="translate(-35.445543,-91.909364)">
</g>
<g
   id="g143"
   transform="translate(-35.445543,-91.909364)">
</g>
<g
   id="g145"
   transform="translate(-35.445543,-91.909364)">
</g>
<g
   id="g147"
   transform="translate(-35.445543,-91.909364)">
</g>
<g
   id="g149"
   transform="translate(-35.445543,-91.909364)">
</g>
</svg>